<svg version="1.1" id="Layer_1" xmlns="http://www.w3.org/2000/svg" xmlns:xlink="http://www.w3.org/1999/xlink" x="0px" y="0px"
	 width="100%" viewBox="0 0 138 137" enable-background="new 0 0 138 137" xml:space="preserve">
<path fill="#020201" opacity="1.000000" stroke="none" 
	d="
M76.000000,138.000000 
	C50.666668,138.000000 25.833334,138.000000 1.000000,138.000000 
	C1.000000,92.333336 1.000000,46.666668 1.000000,1.000000 
	C47.000000,1.000000 93.000000,1.000000 139.000000,1.000000 
	C139.000000,46.666668 139.000000,92.333336 139.000000,138.000000 
	C118.166664,138.000000 97.333336,138.000000 76.000000,138.000000 
M104.077408,78.070259 
	C104.077408,78.070259 104.141739,78.193581 104.707603,78.054581 
	C104.909836,77.733902 105.112076,77.413223 105.728386,76.999702 
	C105.987373,76.822723 106.105400,76.577820 106.798920,76.128891 
	C106.855362,77.051468 107.288261,78.192696 106.901817,78.858040 
	C105.383904,81.471367 103.607880,83.934792 101.816162,86.621109 
	C111.910431,86.621109 121.279251,86.621109 129.531494,86.621109 
	C124.045509,80.635544 118.152275,74.205658 112.059372,67.938751 
	C112.059372,67.938751 112.227592,67.743477 112.085052,67.181915 
	C111.365875,66.556656 110.646698,65.931396 109.920258,65.053329 
	C109.920258,65.053329 109.667503,65.044350 109.604691,64.670181 
	C109.460831,64.423058 109.246620,64.313927 108.934502,64.070305 
	C108.934502,64.070305 108.662079,64.042130 108.602661,63.668186 
	C108.459557,63.420776 108.245827,63.311905 107.935089,63.069805 
	C107.935089,63.069805 107.663445,63.042316 107.604111,62.667278 
	C107.460648,62.419109 107.246323,62.309914 106.935730,62.068924 
	C106.935730,62.068924 106.665054,62.042641 106.605804,61.667137 
	C106.462006,61.418381 106.247261,61.309704 105.941010,61.079197 
	C105.941010,61.079197 105.678619,61.066093 105.404678,60.490929 
	C101.580902,56.764503 97.757126,53.038078 93.928902,49.065819 
	C93.928902,49.065819 93.683044,49.068367 93.499168,48.588490 
	C92.974754,48.162617 92.450333,47.736748 91.620079,46.761356 
	C91.288300,46.512459 90.956512,46.263561 90.584320,45.656334 
	C90.453568,45.413448 90.251976,45.313000 89.954865,45.085106 
	C89.954865,45.085106 89.684860,45.061829 89.424927,44.489269 
	C87.699806,42.921993 85.974693,41.354717 84.081383,39.916363 
	C84.081383,39.916363 84.210449,39.748283 84.022964,39.122330 
	C81.989204,37.182354 79.955444,35.242378 77.811935,32.966015 
	C77.811935,32.966015 77.463539,32.904186 77.260162,32.360703 
	C76.818321,32.010998 76.376488,31.661289 75.924126,31.054718 
	C75.924126,31.054718 75.667336,31.042517 75.607460,30.665674 
	C75.463219,30.416281 75.247803,30.306660 74.936913,30.067253 
	C74.936913,30.067253 74.667397,30.042484 74.607788,29.665249 
	C74.463646,29.415680 74.248177,29.305552 73.952469,29.078407 
	C73.952469,29.078407 73.696114,29.066935 73.433891,28.483042 
	C69.599602,24.757782 65.765305,21.032522 61.923557,17.054253 
	C61.923557,17.054253 61.670589,17.045473 61.607590,16.669355 
	C61.462875,16.420809 61.247456,16.311491 60.934635,16.069532 
	C60.934635,16.069532 60.662758,16.042889 60.604008,15.667846 
	C60.460529,15.419450 60.246159,15.310721 59.926147,15.061665 
	C59.926147,15.061665 59.646027,15.027928 59.601151,14.673157 
	C59.461639,14.437537 59.256393,14.339986 58.687157,13.827193 
	C58.355293,13.577717 58.023426,13.328240 57.420609,12.469876 
	C55.869213,10.935930 54.317822,9.401984 51.906799,7.018082 
	C51.906799,46.109272 51.906799,83.763329 51.906799,121.417381 
	C51.721893,121.426819 51.536987,121.436256 51.352081,121.445694 
	C50.578369,116.268288 49.804653,111.090889 49.147381,105.462006 
	C49.147381,105.462006 48.923100,105.053230 49.055695,104.168587 
	C48.396587,99.086967 47.737480,94.005348 47.105915,88.973969 
	C47.105915,88.973969 47.110367,88.916199 47.197212,88.021240 
	C45.066532,87.626076 42.939411,86.913376 40.804569,86.889450 
	C30.268005,86.771416 19.729399,86.835754 8.047357,86.835754 
	C10.009534,88.529823 10.972919,89.361572 12.181063,90.805199 
	C21.057247,99.560158 29.933432,108.315117 38.984451,117.599930 
	C39.295643,117.779625 39.606831,117.959328 39.955311,118.047806 
	C39.955311,118.047806 39.865093,118.087448 39.996189,118.618248 
	C40.301403,118.792221 40.606617,118.966194 40.955372,119.046333 
	C40.955372,119.046333 40.861889,119.090607 40.995228,119.620415 
	C41.300770,119.793228 41.606316,119.966042 41.957695,120.044159 
	C41.957695,120.044159 41.863468,120.090950 41.996941,120.620110 
	C42.304085,120.790146 42.611233,120.960182 42.963772,121.037926 
	C42.963772,121.037926 42.871861,121.084084 43.002979,121.613945 
	C43.308273,121.786713 43.613567,121.959488 43.961079,122.041664 
	C43.961079,122.041664 43.870068,122.082970 44.003574,122.613083 
	C44.308952,122.787720 44.614330,122.962357 44.953850,123.048210 
	C44.953850,123.048210 44.865166,123.082611 45.003841,123.611763 
	C45.309380,123.786652 45.614914,123.961540 45.954483,124.047768 
	C45.954483,124.047768 45.865993,124.082230 46.005302,124.610474 
	C46.312027,124.782845 46.618752,124.955208 46.980274,125.021111 
	C46.980274,125.021111 46.889801,125.099541 47.124352,125.746559 
	C48.481934,127.562546 49.839512,129.378525 51.466679,131.555130 
	C54.202354,128.643005 55.946461,126.786400 57.931408,124.931381 
	C57.931408,124.931381 57.930489,124.690529 58.413254,124.509964 
	C58.835377,123.984390 59.257496,123.458809 59.930275,122.929832 
	C59.930275,122.929832 59.934170,122.679184 60.416164,122.510040 
	C60.836639,121.982773 61.257114,121.455498 62.028198,120.808990 
	C62.028198,120.808990 62.096336,120.444984 62.698364,120.185669 
	C63.698013,119.101463 64.697662,118.017258 65.936882,116.933929 
	C65.936882,116.933929 65.933533,116.694366 66.513321,116.428543 
	C68.469879,114.317383 70.426437,112.206230 72.948158,109.855507 
	C74.333092,108.362610 75.718025,106.869713 77.712013,105.134102 
	C78.542816,104.167122 79.373619,103.200142 80.135406,102.001846 
	C80.135406,102.001846 80.185799,102.234482 80.762794,102.082344 
	C80.973755,101.754227 81.184708,101.426102 81.773811,101.042274 
	C82.025818,100.899292 82.136055,100.683784 82.725342,100.126045 
	C83.599831,99.117157 84.474327,98.108276 85.747826,97.030724 
	C86.010941,96.877205 86.129242,96.648712 86.656067,96.142792 
	C86.843796,95.813820 87.031525,95.484848 87.088173,95.089050 
	C87.088173,95.089050 87.173470,95.208931 87.708740,95.089706 
	C87.875000,94.781151 88.041267,94.472595 88.084641,94.078308 
	C88.084641,94.078308 88.157547,94.209213 88.727325,94.063835 
	C88.934303,93.741356 89.141273,93.418869 89.941231,92.841347 
	C92.658569,89.996811 95.375916,87.152275 98.699539,84.073006 
	C99.527489,83.110443 100.355431,82.147881 101.040840,81.010864 
	C101.040840,81.010864 101.157669,81.203423 101.694138,81.077942 
	C101.862717,80.768234 102.031296,80.458527 102.072472,80.073677 
	C102.072472,80.073677 102.155075,80.196388 102.688911,80.072563 
	C102.856697,79.764374 103.024483,79.456192 103.060661,79.056938 
	C103.060661,79.056938 103.151527,79.188698 103.688614,79.074600 
	C103.856567,78.765877 104.024521,78.457153 104.077408,78.070259 
z"/>
<path fill="#FEFDF7" opacity="1.000000" stroke="none" 
	d="
M48.923100,105.053230 
	C48.923100,105.053230 49.147381,105.462006 49.049217,106.160278 
	C49.094185,112.138115 49.345768,117.419312 49.266239,122.695526 
	C49.253983,123.508621 47.720020,124.298775 46.889801,125.099541 
	C46.889801,125.099541 46.980274,125.021111 46.864536,124.823143 
	C46.454533,124.444191 46.160263,124.263206 45.865993,124.082230 
	C45.865993,124.082230 45.954483,124.047768 45.851276,123.839317 
	C45.453770,123.448112 45.159470,123.265358 44.865166,123.082611 
	C44.865166,123.082611 44.953850,123.048210 44.851536,122.840164 
	C44.456169,122.449074 44.163116,122.266022 43.870064,122.082977 
	C43.870068,122.082970 43.961079,122.041664 43.855740,121.834976 
	C43.457554,121.446884 43.164707,121.265488 42.871861,121.084084 
	C42.871861,121.084084 42.963772,121.037926 42.855423,120.832405 
	C42.452538,120.448242 42.158001,120.269600 41.863468,120.090950 
	C41.863468,120.090950 41.957695,120.044159 41.851341,119.838341 
	C41.450623,119.451881 41.156254,119.271248 40.861889,119.090607 
	C40.861889,119.090607 40.955372,119.046333 40.850468,118.840073 
	C40.452072,118.451683 40.158585,118.269569 39.865093,118.087448 
	C39.865093,118.087448 39.955311,118.047806 39.842682,117.834045 
	C39.423244,117.436890 39.116428,117.253487 38.809616,117.070084 
	C29.933432,108.315117 21.057247,99.560158 12.154819,90.090561 
	C12.595097,88.960320 13.067992,88.175270 13.527207,88.183197 
	C24.722477,88.376312 35.916290,88.653839 47.110367,88.916199 
	C47.110367,88.916199 47.105915,88.973969 47.041893,89.417542 
	C46.987732,93.627350 46.834297,97.404938 47.094872,101.153755 
	C47.187710,102.489479 48.284554,103.755432 48.923100,105.053230 
z"/>
<path fill="#FEFEFB" opacity="1.000000" stroke="none" 
	d="
M90.624733,46.014660 
	C90.956512,46.263561 91.288300,46.512459 91.815689,47.313431 
	C92.568550,48.266460 93.125801,48.667412 93.683044,49.068367 
	C93.683044,49.068367 93.928902,49.065819 93.975899,49.521183 
	C97.908142,53.673061 101.793381,57.369576 105.678619,61.066093 
	C105.678619,61.066093 105.941010,61.079197 106.016464,61.371948 
	C106.232216,61.867626 106.423256,61.993607 106.665054,62.042641 
	C106.665054,62.042641 106.935730,62.068924 107.013336,62.366199 
	C107.230888,62.866646 107.421722,62.992928 107.663445,63.042316 
	C107.663445,63.042316 107.935089,63.069805 108.013046,63.367119 
	C108.230644,63.866985 108.421005,63.992882 108.662079,64.042130 
	C108.662079,64.042130 108.934502,64.070305 109.013672,64.368423 
	C109.234055,64.869026 109.425606,64.994965 109.667503,65.044350 
	C109.667503,65.044350 109.920258,65.053329 109.935272,65.524239 
	C110.709396,66.577927 111.468491,67.160698 112.227592,67.743477 
	C112.227592,67.743477 112.059372,67.938751 112.075943,68.232727 
	C110.405411,69.688423 108.718315,70.850136 106.609055,72.007477 
	C102.279205,71.193550 98.371521,70.383995 93.526985,69.380356 
	C97.076836,67.853355 99.565125,66.782990 102.675926,65.444855 
	C101.281357,64.167816 100.847519,63.414856 100.344826,63.365665 
	C95.703819,62.911583 92.709366,60.786224 91.661995,55.976746 
	C91.502228,55.243114 89.265991,54.317245 88.211899,54.538177 
	C84.355209,55.346542 83.606857,53.936020 84.627701,50.534409 
	C84.889648,49.661541 84.667038,48.643250 84.667038,49.069580 
	C81.310951,46.333641 77.835205,44.730232 76.475502,42.052383 
	C75.061676,39.267921 74.601631,37.274918 70.978065,38.638649 
	C70.651398,38.761589 68.508507,35.848808 68.775833,35.479294 
	C71.112518,32.249355 69.038094,32.081543 66.612206,30.820505 
	C64.020775,29.473410 62.131443,26.735222 60.020653,24.523148 
	C59.130970,23.590775 58.459068,22.450590 57.688171,21.404869 
	C57.126152,22.661755 56.641102,23.960672 55.983387,25.165314 
	C55.081699,26.816795 54.048992,28.396744 53.056168,29.545923 
	C53.039902,23.323372 53.039902,17.562248 53.039902,11.757970 
	C54.929165,12.294408 56.310364,12.686586 57.691563,13.078764 
	C58.023426,13.328240 58.355293,13.577717 58.895332,14.258793 
	C59.231186,14.888441 59.412025,15.000954 59.646027,15.027928 
	C59.646027,15.027928 59.926147,15.061665 60.008644,15.363148 
	C60.231071,15.867175 60.421608,15.993261 60.662758,16.042889 
	C60.662758,16.042889 60.934635,16.069532 61.013973,16.367901 
	C61.235397,16.869274 61.427826,16.995676 61.670589,17.045473 
	C61.670589,17.045473 61.923557,17.054253 61.972675,17.513483 
	C65.913231,21.670788 69.804672,25.368860 73.696114,29.066935 
	C73.696114,29.066935 73.952469,29.078407 74.021790,29.369801 
	C74.231781,29.865980 74.423874,29.993078 74.667397,30.042484 
	C74.667397,30.042484 74.936913,30.067253 75.014191,30.364822 
	C75.232216,30.866661 75.424171,30.993370 75.667336,31.042517 
	C75.667336,31.042517 75.924126,31.054718 75.981483,31.484959 
	C76.513741,32.244862 76.988640,32.574524 77.463539,32.904186 
	C77.463539,32.904186 77.811935,32.966015 77.880951,33.485718 
	C80.036797,35.919708 82.123619,37.833996 84.210449,39.748283 
	C84.210449,39.748283 84.081383,39.916363 84.112656,40.202278 
	C85.990906,42.012737 87.837883,43.537281 89.684860,45.061829 
	C89.684860,45.061829 89.954865,45.085106 90.017609,45.375565 
	C90.212494,45.859158 90.393951,45.975372 90.624733,46.014660 
z"/>
<path fill="#FEFEFB" opacity="1.000000" stroke="none" 
	d="
M86.102737,96.345253 
	C86.129242,96.648712 86.010941,96.877205 85.130478,97.045334 
	C83.710266,98.171883 82.907387,99.283821 82.104507,100.395760 
	C82.136055,100.683784 82.025818,100.899292 81.287399,101.140350 
	C80.595917,101.570450 80.390862,101.902466 80.185806,102.234482 
	C80.185799,102.234482 80.135406,102.001846 79.770348,102.054337 
	C78.637848,103.196823 77.870399,104.286819 77.102951,105.376816 
	C75.718025,106.869713 74.333092,108.362610 72.315536,110.046242 
	C69.766449,112.389442 67.849991,114.541908 65.933533,116.694366 
	C65.933533,116.694366 65.936882,116.933929 65.468842,116.942162 
	C64.032639,118.115257 63.064491,119.280121 62.096336,120.444984 
	C62.096336,120.444984 62.028198,120.808990 61.576920,120.910751 
	C60.728481,121.568069 60.331326,122.123627 59.934170,122.679184 
	C59.934170,122.679184 59.930275,122.929832 59.529495,122.966812 
	C58.729309,123.566032 58.329899,124.128281 57.930489,124.690529 
	C57.930489,124.690529 57.931408,124.931381 57.447296,124.989632 
	C54.476082,126.334999 52.917240,126.177483 52.993401,122.782951 
	C53.103966,117.854904 53.056091,112.923286 53.452904,108.053299 
	C54.986080,111.026405 56.142139,113.939407 57.825287,118.180542 
	C60.121037,111.538879 62.395309,105.953537 69.848686,106.386520 
	C69.122444,103.882523 68.634384,102.199730 67.798950,99.319260 
	C73.242676,102.414558 75.706047,101.915665 76.379387,96.252090 
	C76.608276,94.326820 79.810081,92.683098 81.770729,91.051735 
	C85.074768,88.302612 89.663170,86.323982 91.584755,82.846245 
	C95.677597,75.438919 97.937202,73.345879 106.225151,74.154411 
	C106.298767,74.970322 106.190613,75.617653 106.082458,76.264977 
	C106.105400,76.577820 105.987373,76.822723 105.237640,77.118813 
	C104.545174,77.556473 104.343452,77.875031 104.141739,78.193581 
	C104.141739,78.193581 104.077408,78.070259 103.871628,78.174850 
	C103.494400,78.582527 103.322960,78.885612 103.151527,79.188698 
	C103.151527,79.188698 103.060661,79.056938 102.862274,79.168579 
	C102.494278,79.585609 102.324677,79.890999 102.155075,80.196388 
	C102.155075,80.196388 102.072472,80.073677 101.871849,80.179741 
	C101.500046,80.591682 101.328857,80.897552 101.157669,81.203423 
	C101.157669,81.203423 101.040840,81.010864 100.715210,81.050156 
	C99.624138,82.162201 98.858696,83.234970 98.093262,84.307739 
	C95.375916,87.152275 92.658569,89.996811 89.354523,93.038666 
	C88.564400,93.560394 88.360970,93.884804 88.157547,94.209213 
	C88.157547,94.209213 88.084641,94.078308 87.880432,94.183846 
	C87.508644,94.595901 87.341057,94.902420 87.173470,95.208931 
	C87.173470,95.208931 87.088173,95.089050 86.868660,95.209290 
	C86.467010,95.668106 86.284874,96.006676 86.102737,96.345253 
z"/>
<path fill="#FBF8E2" opacity="1.000000" stroke="none" 
	d="
M106.440689,76.196930 
	C106.190613,75.617653 106.298767,74.970322 106.327057,73.898102 
	C106.508545,72.986084 106.769875,72.498962 107.031212,72.011841 
	C108.718315,70.850136 110.405411,69.688423 112.175781,68.151237 
	C118.152275,74.205658 124.045509,80.635544 129.531494,86.621109 
	C121.279251,86.621109 111.910431,86.621109 101.816162,86.621109 
	C103.607880,83.934792 105.383904,81.471367 106.901817,78.858040 
	C107.288261,78.192696 106.855362,77.051468 106.440689,76.196930 
z"/>
<path fill="#FBF8E2" opacity="1.000000" stroke="none" 
	d="
M53.075787,107.993195 
	C53.056091,112.923286 53.103966,117.854904 52.993401,122.782951 
	C52.917240,126.177483 54.476082,126.334999 57.326874,124.988846 
	C55.946461,126.786400 54.202354,128.643005 51.466679,131.555130 
	C49.839512,129.378525 48.481934,127.562546 47.007076,125.423050 
	C47.720020,124.298775 49.253983,123.508621 49.266239,122.695526 
	C49.345768,117.419312 49.094185,112.138115 48.990993,106.386017 
	C49.804653,111.090889 50.578369,116.268288 51.352081,121.445694 
	C51.536987,121.436256 51.721893,121.426819 51.906799,121.417381 
	C51.906799,83.763329 51.906799,46.109272 51.906799,7.018082 
	C54.317822,9.401984 55.869213,10.935930 57.556084,12.774321 
	C56.310364,12.686586 54.929165,12.294408 53.039902,11.757970 
	C53.039902,17.562248 53.039902,23.323372 53.038326,29.944126 
	C53.048897,31.866449 53.061039,32.929138 53.053757,34.393211 
	C53.048050,35.865757 53.061760,36.936924 53.060143,38.475964 
	C53.067516,58.960033 53.090221,78.976234 53.083206,99.409767 
	C53.071602,101.221207 53.089718,102.615311 53.085892,104.407410 
	C53.067890,105.868004 53.071838,106.930603 53.075787,107.993195 
z"/>
<path fill="#FBF8E2" opacity="1.000000" stroke="none" 
	d="
M47.153790,88.468719 
	C35.916290,88.653839 24.722477,88.376312 13.527207,88.183197 
	C13.067992,88.175270 12.595097,88.960320 12.032440,89.784622 
	C10.972919,89.361572 10.009534,88.529823 8.047357,86.835754 
	C19.729399,86.835754 30.268005,86.771416 40.804569,86.889450 
	C42.939411,86.913376 45.066532,87.626076 47.153790,88.468719 
z"/>
<path fill="#FBF8E2" opacity="1.000000" stroke="none" 
	d="
M73.565002,28.774988 
	C69.804672,25.368860 65.913231,21.670788 61.976402,17.639988 
	C65.765305,21.032522 69.599602,24.757782 73.565002,28.774988 
z"/>
<path fill="#FBF8E2" opacity="1.000000" stroke="none" 
	d="
M105.541649,60.778511 
	C101.793381,57.369576 97.908142,53.673061 93.978127,49.644100 
	C97.757126,53.038078 101.580902,56.764503 105.541649,60.778511 
z"/>
<path fill="#FBF8E2" opacity="1.000000" stroke="none" 
	d="
M48.989395,104.610909 
	C48.284554,103.755432 47.187710,102.489479 47.094872,101.153755 
	C46.834297,97.404938 46.987732,93.627350 47.028122,89.392418 
	C47.737480,94.005348 48.396587,99.086967 48.989395,104.610909 
z"/>
<path fill="#FBF8E2" opacity="1.000000" stroke="none" 
	d="
M84.116707,39.435307 
	C82.123619,37.833996 80.036797,35.919708 77.935822,33.653912 
	C79.955444,35.242378 81.989204,37.182354 84.116707,39.435307 
z"/>
<path fill="#FBF8E2" opacity="1.000000" stroke="none" 
	d="
M66.223427,116.561455 
	C67.849991,114.541908 69.766449,112.389442 72.032951,110.166023 
	C70.426437,112.206230 68.469879,114.317383 66.223427,116.561455 
z"/>
<path fill="#FBF8E2" opacity="1.000000" stroke="none" 
	d="
M89.554893,44.775551 
	C87.837883,43.537281 85.990906,42.012737 84.196747,40.137817 
	C85.974693,41.354717 87.699806,42.921993 89.554893,44.775551 
z"/>
<path fill="#FBF8E2" opacity="1.000000" stroke="none" 
	d="
M62.397350,120.315323 
	C63.064491,119.280121 64.032639,118.115257 65.349052,116.941727 
	C64.697662,118.017258 63.698013,119.101463 62.397350,120.315323 
z"/>
<path fill="#FBF8E2" opacity="1.000000" stroke="none" 
	d="
M98.396393,84.190369 
	C98.858696,83.234970 99.624138,82.162201 100.786476,81.137383 
	C100.355431,82.147881 99.527489,83.110443 98.396393,84.190369 
z"/>
<path fill="#FBF8E2" opacity="1.000000" stroke="none" 
	d="
M82.414925,100.260902 
	C82.907387,99.283821 83.710266,98.171883 84.930984,97.079666 
	C84.474327,98.108276 83.599831,99.117157 82.414925,100.260902 
z"/>
<path fill="#FBF8E2" opacity="1.000000" stroke="none" 
	d="
M77.407486,105.255463 
	C77.870399,104.286819 78.637848,103.196823 79.804855,102.169983 
	C79.373619,103.200142 78.542816,104.167122 77.407486,105.255463 
z"/>
<path fill="#FBF8E2" opacity="1.000000" stroke="none" 
	d="
M112.156326,67.462692 
	C111.468491,67.160698 110.709396,66.577927 109.938904,65.650642 
	C110.646698,65.931396 111.365875,66.556656 112.156326,67.462692 
z"/>
<path fill="#FBF8E2" opacity="1.000000" stroke="none" 
	d="
M93.591110,48.828430 
	C93.125801,48.667412 92.568550,48.266460 91.968613,47.588192 
	C92.450333,47.736748 92.974754,48.162617 93.591110,48.828430 
z"/>
<path fill="#FBF8E2" opacity="1.000000" stroke="none" 
	d="
M60.175167,122.594612 
	C60.331326,122.123627 60.728481,121.568069 61.401619,120.970367 
	C61.257114,121.455498 60.836639,121.982773 60.175167,122.594612 
z"/>
<path fill="#FBF8E2" opacity="1.000000" stroke="none" 
	d="
M58.171871,124.600250 
	C58.329899,124.128281 58.729309,123.566032 59.404167,122.968506 
	C59.257496,123.458809 58.835377,123.984390 58.171871,124.600250 
z"/>
<path fill="#FBF8E2" opacity="1.000000" stroke="none" 
	d="
M77.361847,32.632446 
	C76.988640,32.574524 76.513741,32.244862 75.986740,31.613390 
	C76.376488,31.661289 76.818321,32.010998 77.361847,32.632446 
z"/>
<path fill="#FBF8E2" opacity="1.000000" stroke="none" 
	d="
M106.635429,61.854889 
	C106.423256,61.993607 106.232216,61.867626 106.026749,61.502907 
	C106.247261,61.309704 106.462006,61.418381 106.635429,61.854889 
z"/>
<path fill="#FBF8E2" opacity="1.000000" stroke="none" 
	d="
M59.623589,14.850542 
	C59.412025,15.000954 59.231186,14.888441 59.044456,14.535448 
	C59.256393,14.339986 59.461639,14.437537 59.623589,14.850542 
z"/>
<path fill="#FBF8E2" opacity="1.000000" stroke="none" 
	d="
M45.935646,124.346352 
	C46.160263,124.263206 46.454533,124.444191 46.837135,124.876373 
	C46.618752,124.955208 46.312027,124.782845 45.935646,124.346352 
z"/>
<path fill="#FBF8E2" opacity="1.000000" stroke="none" 
	d="
M75.637398,30.854095 
	C75.424171,30.993370 75.232216,30.866661 75.026337,30.499603 
	C75.247803,30.306660 75.463219,30.416281 75.637398,30.854095 
z"/>
<path fill="#FBF8E2" opacity="1.000000" stroke="none" 
	d="
M44.934502,123.347183 
	C45.159470,123.265358 45.453770,123.448112 45.834259,123.883652 
	C45.614914,123.961540 45.309380,123.786652 44.934502,123.347183 
z"/>
<path fill="#FBF8E2" opacity="1.000000" stroke="none" 
	d="
M43.936821,122.348030 
	C44.163116,122.266022 44.456169,122.449074 44.834465,122.884560 
	C44.614330,122.962357 44.308952,122.787720 43.936821,122.348030 
z"/>
<path fill="#FBF8E2" opacity="1.000000" stroke="none" 
	d="
M90.604523,45.835495 
	C90.393951,45.975372 90.212494,45.859158 90.029938,45.510506 
	C90.251976,45.313000 90.453568,45.413448 90.604523,45.835495 
z"/>
<path fill="#FBF8E2" opacity="1.000000" stroke="none" 
	d="
M42.937420,121.349014 
	C43.164707,121.265488 43.457554,121.446884 43.834633,121.880272 
	C43.613567,121.959488 43.308273,121.786713 42.937420,121.349014 
z"/>
<path fill="#FBF8E2" opacity="1.000000" stroke="none" 
	d="
M41.930206,120.355530 
	C42.158001,120.269600 42.452538,120.448242 42.832726,120.878555 
	C42.611233,120.960182 42.304085,120.790146 41.930206,120.355530 
z"/>
<path fill="#FBF8E2" opacity="1.000000" stroke="none" 
	d="
M40.928558,119.355515 
	C41.156254,119.271248 41.450623,119.451881 41.828423,119.885689 
	C41.606316,119.966042 41.300770,119.793228 40.928558,119.355515 
z"/>
<path fill="#FBF8E2" opacity="1.000000" stroke="none" 
	d="
M39.930641,118.352844 
	C40.158585,118.269569 40.452072,118.451683 40.828697,118.886978 
	C40.606617,118.966194 40.301403,118.792221 39.930641,118.352844 
z"/>
<path fill="#FBF8E2" opacity="1.000000" stroke="none" 
	d="
M74.637589,29.853867 
	C74.423874,29.993078 74.231781,29.865980 74.026245,29.498026 
	C74.248177,29.305552 74.463646,29.415680 74.637589,29.853867 
z"/>
<path fill="#FBF8E2" opacity="1.000000" stroke="none" 
	d="
M38.897034,117.335007 
	C39.116428,117.253487 39.423244,117.436890 39.824039,117.879654 
	C39.606831,117.959328 39.295643,117.779625 38.897034,117.335007 
z"/>
<path fill="#FBF8E2" opacity="1.000000" stroke="none" 
	d="
M102.421997,80.134476 
	C102.324677,79.890999 102.494278,79.585609 102.928085,79.214111 
	C103.024483,79.456192 102.856697,79.764374 102.421997,80.134476 
z"/>
<path fill="#FBF8E2" opacity="1.000000" stroke="none" 
	d="
M107.633774,62.854797 
	C107.421722,62.992928 107.230888,62.866646 107.026039,62.501579 
	C107.246323,62.309914 107.460648,62.419109 107.633774,62.854797 
z"/>
<path fill="#FBF8E2" opacity="1.000000" stroke="none" 
	d="
M80.474304,102.158417 
	C80.390862,101.902466 80.595917,101.570450 81.098328,101.168213 
	C81.184708,101.426102 80.973755,101.754227 80.474304,102.158417 
z"/>
<path fill="#FBF8E2" opacity="1.000000" stroke="none" 
	d="
M108.632370,63.855156 
	C108.421005,63.992882 108.230644,63.866985 108.026230,63.502998 
	C108.245827,63.311905 108.459557,63.420776 108.632370,63.855156 
z"/>
<path fill="#FBF8E2" opacity="1.000000" stroke="none" 
	d="
M109.636093,64.857269 
	C109.425606,64.994965 109.234055,64.869026 109.027443,64.504669 
	C109.246620,64.313927 109.460831,64.423058 109.636093,64.857269 
z"/>
<path fill="#FBF8E2" opacity="1.000000" stroke="none" 
	d="
M86.379402,96.244019 
	C86.284874,96.006676 86.467010,95.668106 86.934204,95.242706 
	C87.031525,95.484848 86.843796,95.813820 86.379402,96.244019 
z"/>
<path fill="#FBF8E2" opacity="1.000000" stroke="none" 
	d="
M87.441101,95.149323 
	C87.341057,94.902420 87.508644,94.595901 87.941879,94.226715 
	C88.041267,94.472595 87.875000,94.781151 87.441101,95.149323 
z"/>
<path fill="#FBF8E2" opacity="1.000000" stroke="none" 
	d="
M88.442436,94.136520 
	C88.360970,93.884804 88.564400,93.560394 89.058037,93.166183 
	C89.141273,93.418869 88.934303,93.741356 88.442436,94.136520 
z"/>
<path fill="#FBF8E2" opacity="1.000000" stroke="none" 
	d="
M61.639091,16.857414 
	C61.427826,16.995676 61.235397,16.869274 61.027325,16.503836 
	C61.247456,16.311491 61.462875,16.420809 61.639091,16.857414 
z"/>
<path fill="#FBF8E2" opacity="1.000000" stroke="none" 
	d="
M60.633385,15.855368 
	C60.421608,15.993261 60.231071,15.867175 60.026016,15.503145 
	C60.246159,15.310721 60.460529,15.419450 60.633385,15.855368 
z"/>
<path fill="#FBF8E2" opacity="1.000000" stroke="none" 
	d="
M104.424667,78.124084 
	C104.343452,77.875031 104.545174,77.556473 105.030609,77.165237 
	C105.112076,77.413223 104.909836,77.733902 104.424667,78.124084 
z"/>
<path fill="#FBF8E2" opacity="1.000000" stroke="none" 
	d="
M103.420074,79.131653 
	C103.322960,78.885612 103.494400,78.582527 103.929153,78.213928 
	C104.024521,78.457153 103.856567,78.765877 103.420074,79.131653 
z"/>
<path fill="#FBF8E2" opacity="1.000000" stroke="none" 
	d="
M101.425903,81.140686 
	C101.328857,80.897552 101.500046,80.591682 101.935555,80.217316 
	C102.031296,80.458527 101.862717,80.768234 101.425903,81.140686 
z"/>
<path fill="#FFFFFF" opacity="1.000000" stroke="none" 
	d="
M53.452904,108.053299 
	C53.071838,106.930603 53.067890,105.868004 53.414810,104.362679 
	C57.555576,101.746567 55.586288,100.336113 53.112923,98.992432 
	C53.090221,78.976234 53.067516,58.960033 53.387169,38.434399 
	C54.376957,37.173065 55.024391,36.421169 55.671825,35.669270 
	C54.805611,35.110123 53.939396,34.550976 53.073181,33.991829 
	C53.061039,32.929138 53.048897,31.866449 53.054596,30.405556 
	C54.048992,28.396744 55.081699,26.816795 55.983387,25.165314 
	C56.641102,23.960672 57.126152,22.661755 57.688171,21.404869 
	C58.459068,22.450590 59.130970,23.590775 60.020653,24.523148 
	C62.131443,26.735222 64.020775,29.473410 66.612206,30.820505 
	C69.038094,32.081543 71.112518,32.249355 68.775833,35.479294 
	C68.508507,35.848808 70.651398,38.761589 70.978065,38.638649 
	C74.601631,37.274918 75.061676,39.267921 76.475502,42.052383 
	C77.835205,44.730232 81.310951,46.333641 84.667038,49.069580 
	C84.667038,48.643250 84.889648,49.661541 84.627701,50.534409 
	C83.606857,53.936020 84.355209,55.346542 88.211899,54.538177 
	C89.265991,54.317245 91.502228,55.243114 91.661995,55.976746 
	C92.709366,60.786224 95.703819,62.911583 100.344826,63.365665 
	C100.847519,63.414856 101.281357,64.167816 102.675926,65.444855 
	C99.565125,66.782990 97.076836,67.853355 93.526985,69.380356 
	C98.371521,70.383995 102.279205,71.193550 106.609055,72.007477 
	C106.769875,72.498962 106.508545,72.986084 106.145294,73.729515 
	C97.937202,73.345879 95.677597,75.438919 91.584755,82.846245 
	C89.663170,86.323982 85.074768,88.302612 81.770729,91.051735 
	C79.810081,92.683098 76.608276,94.326820 76.379387,96.252090 
	C75.706047,101.915665 73.242676,102.414558 67.798950,99.319260 
	C68.634384,102.199730 69.122444,103.882523 69.848686,106.386520 
	C62.395309,105.953537 60.121037,111.538879 57.825287,118.180542 
	C56.142139,113.939407 54.986080,111.026405 53.452904,108.053299 
M87.779282,70.011002 
	C87.571159,69.175079 87.363029,68.339157 87.154907,67.503235 
	C86.553909,67.886833 85.952919,68.270432 85.351921,68.654030 
	C86.024498,69.273300 86.697067,69.892570 87.779282,70.011002 
z"/>
<path fill="#FEFEFB" opacity="1.000000" stroke="none" 
	d="
M53.083206,99.409767 
	C55.586288,100.336113 57.555576,101.746567 53.436756,103.964676 
	C53.089718,102.615311 53.071602,101.221207 53.083206,99.409767 
z"/>
<path fill="#FEFEFB" opacity="1.000000" stroke="none" 
	d="
M53.053757,34.393211 
	C53.939396,34.550976 54.805611,35.110123 55.671825,35.669270 
	C55.024391,36.421169 54.376957,37.173065 53.402496,37.966526 
	C53.061760,36.936924 53.048050,35.865757 53.053757,34.393211 
z"/>
<path fill="#FEFEFB" opacity="1.000000" stroke="none" 
	d="
M87.574463,70.261421 
	C86.697067,69.892570 86.024498,69.273300 85.351921,68.654030 
	C85.952919,68.270432 86.553909,67.886833 87.154907,67.503235 
	C87.363029,68.339157 87.571159,69.175079 87.574463,70.261421 
z"/>
</svg>